<svg xmlns="http://www.w3.org/2000/svg" viewBox="0 0 64 64">
  <defs><clipPath id="c"><circle cx="32" cy="32" r="32"/></clipPath></defs>
  <g clip-path="url(#c)">
    <rect width="64" height="64" fill="#B22234"/>
    <g fill="#FFFFFF">
      <rect y="5"  width="64" height="5"/>
      <rect y="15" width="64" height="5"/>
      <rect y="25" width="64" height="5"/>
      <rect y="35" width="64" height="5"/>
      <rect y="45" width="64" height="5"/>
      <rect y="55" width="64" height="5"/>
    </g>
    <rect width="26" height="34" fill="#3C3B6E"/>
    <g fill="#FFF" font-size="4" font-family="sans-serif">
      <circle cx="4"  cy="4"  r="1.2"/><circle cx="9"  cy="4" r="1.2"/><circle cx="14" cy="4" r="1.2"/><circle cx="19" cy="4" r="1.2"/><circle cx="24" cy="4" r="1.2"/>
      <circle cx="6.5" cy="8" r="1.2"/><circle cx="11.5" cy="8" r="1.2"/><circle cx="16.5" cy="8" r="1.2"/><circle cx="21.5" cy="8" r="1.2"/>
      <circle cx="4"  cy="12" r="1.2"/><circle cx="9"  cy="12" r="1.2"/><circle cx="14" cy="12" r="1.2"/><circle cx="19" cy="12" r="1.2"/><circle cx="24" cy="12" r="1.2"/>
      <circle cx="6.5" cy="16" r="1.2"/><circle cx="11.5" cy="16" r="1.2"/><circle cx="16.5" cy="16" r="1.2"/><circle cx="21.5" cy="16" r="1.2"/>
      <circle cx="4"  cy="20" r="1.2"/><circle cx="9"  cy="20" r="1.2"/><circle cx="14" cy="20" r="1.2"/><circle cx="19" cy="20" r="1.2"/><circle cx="24" cy="20" r="1.2"/>
      <circle cx="6.5" cy="24" r="1.2"/><circle cx="11.5" cy="24" r="1.2"/><circle cx="16.5" cy="24" r="1.2"/><circle cx="21.5" cy="24" r="1.2"/>
      <circle cx="4"  cy="28" r="1.2"/><circle cx="9"  cy="28" r="1.2"/><circle cx="14" cy="28" r="1.2"/><circle cx="19" cy="28" r="1.2"/><circle cx="24" cy="28" r="1.2"/>
    </g>
  </g>
</svg>
